<svg width="32" height="24" viewBox="0 0 32 24" fill="none" xmlns="http://www.w3.org/2000/svg">
<g clip-path="url(#clip0_4_7)">
<g clip-path="url(#clip1_4_7)">
<path d="M18.576 22.986C17.7753 24.0097 16.2261 24.0097 15.4254 22.986L1.34247 4.98211C0.31549 3.66921 1.25092 1.74988 2.91778 1.74988L31.0836 1.74988C32.7505 1.74988 33.6859 3.66921 32.6589 4.98212L18.576 22.986Z" fill="white"/>
<mask id="mask0_4_7" style="mask-type:luminance" maskUnits="userSpaceOnUse" x="0" y="-1" width="34" height="25">
<path d="M18.576 22.986C17.7753 24.0097 16.2261 24.0097 15.4254 22.986L1.34247 4.98211C0.31549 3.66921 1.25092 1.74988 2.91778 1.74988L31.0836 1.74988C32.7505 1.74988 33.6859 3.66921 32.6589 4.98212L18.576 22.986Z" fill="#E8AA31"/>
<path d="M2 6V0H0" stroke="black"/>
</mask>
<g mask="url(#mask0_4_7)">
<path d="M16.213 22.3699L2.13012 4.36599L0.554807 5.59823L14.6377 23.6021L16.213 22.3699ZM2.91778 2.74988H31.0836V0.74988L2.91778 0.749878V2.74988ZM31.8713 4.366L17.7883 22.3699L19.3637 23.6021L33.4466 5.59823L31.8713 4.366ZM31.0836 2.74988C31.917 2.74988 32.3848 3.70954 31.8713 4.366L33.4466 5.59823C34.987 3.62887 33.5839 0.749881 31.0836 0.74988V2.74988ZM2.13012 4.36599C1.61663 3.70954 2.08435 2.74988 2.91778 2.74988V0.749878C0.417491 0.749878 -0.985659 3.62887 0.554807 5.59823L2.13012 4.36599ZM14.6377 23.6021C15.8388 25.1376 18.1625 25.1376 19.3637 23.6021L17.7883 22.3699C17.388 22.8817 16.6134 22.8817 16.213 22.3699L14.6377 23.6021Z" fill="#E8AA31"/>
</g>
</g>
</g>
<rect width="32" height="6" fill="white"/>
<g style="mix-blend-mode:difference">
<rect width="2" height="6" fill="#D9D9D9"/>
</g>
<defs>
<clipPath id="clip0_4_7">
<rect width="32" height="23" fill="white" transform="translate(0 1)"/>
</clipPath>
<clipPath id="clip1_4_7">
<rect width="34" height="23" fill="white" transform="translate(0 1)"/>
</clipPath>
</defs>
</svg>
