<svg width="34" height="23" viewBox="0 0 34 23" fill="none" xmlns="http://www.w3.org/2000/svg">
<mask id="path-1-inside-1_60_26029" fill="white">
<path d="M18.576 21.986C17.7753 23.0097 16.2261 23.0097 15.4254 21.986L1.34247 3.98211C0.315491 2.66921 1.25092 0.749879 2.91778 0.749879L31.0836 0.749881C32.7505 0.749881 33.6859 2.66921 32.6589 3.98212L18.576 21.986Z"/>
</mask>
<path d="M18.576 21.986C17.7753 23.0097 16.2261 23.0097 15.4254 21.986L1.34247 3.98211C0.315491 2.66921 1.25092 0.749879 2.91778 0.749879L31.0836 0.749881C32.7505 0.749881 33.6859 2.66921 32.6589 3.98212L18.576 21.986Z" fill="white"/>
<path d="M31.0836 0.74988L31.0836 1.74988L31.0836 0.74988ZM32.6589 3.98211L31.8713 3.366L32.6589 3.98211ZM1.34247 3.98211L0.554812 4.59823L1.34247 3.98211ZM2.91778 0.749878L2.91778 -0.250122L2.91778 0.749878ZM15.4254 21.986L14.6377 22.6021L15.4254 21.986ZM18.576 21.986L19.3637 22.6021L18.576 21.986ZM16.213 21.3699L2.13012 3.36599L0.554812 4.59823L14.6377 22.6021L16.213 21.3699ZM2.91778 1.74988L31.0836 1.74988L31.0836 -0.25012L2.91778 -0.250122L2.91778 1.74988ZM31.8713 3.366L17.7883 21.3699L19.3637 22.6021L33.4466 4.59823L31.8713 3.366ZM31.0836 1.74988C31.917 1.74988 32.3848 2.70954 31.8713 3.366L33.4466 4.59823C34.987 2.62887 33.5839 -0.250119 31.0836 -0.25012L31.0836 1.74988ZM2.13012 3.36599C1.61663 2.70954 2.08435 1.74988 2.91778 1.74988L2.91778 -0.250122C0.417496 -0.250122 -0.985654 2.62887 0.554812 4.59823L2.13012 3.36599ZM14.6377 22.6021C15.8388 24.1376 18.1625 24.1376 19.3637 22.6021L17.7883 21.3699C17.388 21.8817 16.6134 21.8817 16.213 21.3699L14.6377 22.6021Z" fill="#E8AA31" mask="url(#path-1-inside-1_60_26029)"/>
</svg>
