<svg width="34" height="19" viewBox="0 0 34 19" fill="none" xmlns="http://www.w3.org/2000/svg">
<g clip-path="url(#clip0_1_2)">
<path d="M18.576 17.986C17.7753 19.0097 16.2261 19.0097 15.4254 17.986L1.34247 -0.017889C0.31549 -1.33079 1.25092 -3.25012 2.91778 -3.25012L31.0836 -3.25012C32.7505 -3.25012 33.6859 -1.33079 32.6589 -0.017879L18.576 17.986Z" fill="white"/>
<mask id="mask0_1_2" style="mask-type:luminance" maskUnits="userSpaceOnUse" x="0" y="-4" width="34" height="23">
<path d="M18.576 17.986C17.7753 19.0097 16.2261 19.0097 15.4254 17.986L1.34247 -0.017889C0.31549 -1.33079 1.25092 -3.25012 2.91778 -3.25012L31.0836 -3.25012C32.7505 -3.25012 33.6859 -1.33079 32.6589 -0.017879L18.576 17.986Z" fill="#E8AA31"/>
</mask>
<g mask="url(#mask0_1_2)">
<path d="M16.213 17.3699L2.13012 -0.63401L0.554807 0.59823L14.6377 18.6021L16.213 17.3699ZM2.91778 -2.25012H31.0836V-4.25012L2.91778 -4.25012V-2.25012ZM31.8713 -0.634L17.7883 17.3699L19.3637 18.6021L33.4466 0.59823L31.8713 -0.634ZM31.0836 -2.25012C31.917 -2.25012 32.3848 -1.29046 31.8713 -0.634L33.4466 0.59823C34.987 -1.37113 33.5839 -4.25012 31.0836 -4.25012V-2.25012ZM2.13012 -0.63401C1.61663 -1.29046 2.08435 -2.25012 2.91778 -2.25012V-4.25012C0.417491 -4.25012 -0.985659 -1.37113 0.554807 0.59823L2.13012 -0.63401ZM14.6377 18.6021C15.8388 20.1376 18.1625 20.1376 19.3637 18.6021L17.7883 17.3699C17.388 17.8817 16.6134 17.8817 16.213 17.3699L14.6377 18.6021Z" fill="#E8AA31"/>
</g>
</g>
<defs>
<clipPath id="clip0_1_2">
<rect width="34" height="23" fill="white" transform="translate(0 -4)"/>
</clipPath>
</defs>
</svg>
